# xmcd
#
# Track frame offsets:
#	150
#	19075
#	32702
#	50495
#	67267
#	86105
#	106392
#	122570
#	139925
#	154415
#	173000
#	191055
#	207990
#
# Disc length: 2965 seconds
#
# Revision: 1
# Processed by: cddbd v1.4b42PL0 Copyright (c) Steve Scherf et al.
# Submitted via: audiograbber 1.80
#
DISCID=be0b930d
DTITLE=Brendan - Dance Dance Dance
DYEAR=1900
DGENRE=
TTITLE0=Friends
TTITLE1=Freewheeling
TTITLE2=Dance Dance Dance
TTITLE3=Finola
TTITLE4=Slaves of Desire
TTITLE5=Running and Flying
TTITLE6=Long distance phone call
TTITLE7=You just broke my heart
TTITLE8=Found what i am
TTITLE9=Mountain Man
TTITLE10=What about the children ?
TTITLE11=Mr. Barman
TTITLE12=Where in the world
EXTD=
EXTT0=
EXTT1=
EXTT2=
EXTT3=
EXTT4=
EXTT5=
EXTT6=
EXTT7=
EXTT8=
EXTT9=
EXTT10=
EXTT11=
EXTT12=
PLAYORDER=
